<?xml version="1.0" standalone="no"?>
<!DOCTYPE svg PUBLIC "-//W3C//DTD SVG 20010904//EN"
 "http://www.w3.org/TR/2001/REC-SVG-20010904/DTD/svg10.dtd">
<svg version="1.0" xmlns="http://www.w3.org/2000/svg"
 width="840.000000pt" height="859.000000pt" viewBox="0 0 840.000000 859.000000"
 preserveAspectRatio="xMidYMid meet">
<metadata>
Created by potrace 1.16, written by Peter Selinger 2001-2019
</metadata>
<g transform="translate(0.000000,859.000000) scale(0.100000,-0.100000)"
fill="#000000" stroke="none">
<path d="M6295 6303 c0 -167 -3 -197 -23 -268 -48 -166 -122 -277 -244 -369
-208 -155 -480 -221 -991 -241 -125 -5 -128 -4 -137 18 -5 12 -32 162 -60 332
-74 456 -72 446 -84 436 -6 -5 -60 -93 -121 -195 -91 -155 -113 -185 -130
-182 -11 2 -49 12 -85 21 -77 21 -244 16 -324 -9 -27 -9 -52 -16 -56 -16 -6 0
-195 304 -229 368 -6 12 -15 22 -19 22 -4 0 -41 -170 -81 -377 -40 -208 -75
-386 -78 -395 -4 -16 -19 -18 -136 -18 -390 0 -713 56 -912 158 -122 62 -244
182 -298 293 -66 134 -80 208 -81 416 l-1 183 -38 0 c-81 0 -329 -32 -472 -61
-448 -91 -872 -282 -1298 -584 -133 -94 -361 -275 -355 -281 3 -2 51 -11 108
-19 366 -55 663 -166 900 -335 172 -123 349 -327 438 -505 89 -181 162 -474
162 -656 0 -71 7 -76 81 -55 30 9 103 25 162 36 483 88 894 14 1267 -227 250
-162 485 -420 677 -743 51 -86 168 -331 218 -457 29 -76 75 -213 102 -305 26
-92 51 -164 54 -160 4 4 19 50 34 102 80 283 242 630 408 875 191 281 475 559
709 696 102 60 260 134 352 164 294 98 620 108 931 28 55 -14 109 -27 121 -30
19 -4 21 4 38 119 64 428 204 737 446 978 237 238 538 379 955 448 88 14 162
28 164 29 11 8 -266 227 -429 339 -360 249 -758 431 -1166 533 -83 21 -324 64
-424 76 l-55 7 0 -189z"/>
</g>
</svg>
