<?xml version="1.0" standalone="no"?>
<!DOCTYPE svg PUBLIC "-//W3C//DTD SVG 20010904//EN"
 "http://www.w3.org/TR/2001/REC-SVG-20010904/DTD/svg10.dtd">
<svg version="1.0" xmlns="http://www.w3.org/2000/svg"
 width="498.000000pt" height="498.000000pt" viewBox="0 0 498.000000 498.000000"
 preserveAspectRatio="xMidYMid meet">
<metadata>
Created by potrace 1.16, written by Peter Selinger 2001-2019
</metadata>
<g transform="translate(0.000000,498.000000) scale(0.100000,-0.100000)"
fill="#000000" stroke="none">
<path d="M3418 3527 c-57 -107 -193 -233 -325 -301 -64 -32 -189 -73 -245 -80
l-56 -7 -41 68 c-51 87 -127 183 -145 183 -12 0 -32 -43 -51 -107 -5 -20 -13
-23 -55 -23 -27 0 -56 -3 -64 -6 -12 -5 -23 10 -48 65 -17 39 -35 71 -39 71
-15 0 -167 -220 -181 -262 -4 -11 -178 27 -242 54 -77 31 -146 68 -196 104
-65 47 -173 162 -204 217 -15 26 -28 47 -29 47 -25 -1 -137 -25 -191 -41 -140
-42 -221 -75 -416 -168 -200 -96 -519 -374 -655 -571 -56 -82 -132 -226 -123
-235 2 -2 33 3 68 12 82 20 348 22 435 4 76 -16 198 -57 249 -83 21 -11 76
-56 121 -101 66 -65 90 -98 118 -157 34 -73 87 -209 87 -222 0 -4 4 -18 10
-32 l9 -26 39 20 c21 11 76 31 122 46 75 23 103 26 240 27 145 0 159 -1 222
-26 131 -51 206 -103 351 -246 103 -101 162 -170 232 -269 l93 -133 24 33 c12
18 28 43 35 55 39 74 189 266 282 359 179 181 322 252 528 261 93 5 129 2 215
-17 57 -13 120 -32 140 -42 21 -10 44 -18 51 -18 10 0 24 33 41 98 41 148 101
265 172 337 119 120 208 164 414 200 160 29 222 30 352 9 54 -9 101 -14 104
-12 19 19 -122 232 -226 342 -140 147 -211 211 -323 289 -204 142 -450 251
-700 311 -179 42 -161 45 -199 -27z m234 -43 c104 -29 248 -80 350 -124 278
-122 568 -363 742 -619 20 -29 36 -56 36 -60 0 -4 -33 -3 -72 1 -77 9 -220 4
-328 -13 -184 -28 -362 -120 -456 -235 -47 -56 -106 -180 -140 -289 -15 -49
-28 -92 -30 -93 -1 -2 -27 5 -56 16 -85 32 -196 45 -330 40 -142 -6 -219 -28
-346 -100 -111 -62 -298 -252 -421 -426 -52 -73 -95 -131 -96 -130 -1 2 -33
44 -70 93 -232 307 -434 470 -645 519 -131 31 -351 16 -480 -33 -30 -12 -58
-21 -61 -21 -4 0 -21 41 -39 92 -80 230 -173 345 -347 429 -115 56 -241 81
-418 83 -77 0 -166 -2 -197 -7 l-58 -7 32 52 c134 221 380 459 621 600 140 82
467 209 575 224 l48 6 52 -70 c99 -134 256 -243 432 -301 75 -24 228 -53 241
-45 5 3 19 24 31 47 11 23 43 75 71 116 l49 74 20 -46 c23 -52 32 -55 143 -47
l70 5 19 43 c11 23 22 42 26 42 8 0 140 -198 140 -211 0 -28 173 7 303 61 150
62 310 193 385 313 l36 58 40 -6 c23 -4 80 -17 128 -31z"/>
<path d="M3463 3393 c-71 -107 -251 -246 -390 -300 -94 -37 -315 -90 -320 -77
-8 22 -125 204 -131 204 -4 0 -16 -19 -27 -42 l-20 -43 -96 -3 -96 -3 -21 48
-20 47 -39 -62 c-21 -34 -51 -84 -66 -113 l-28 -51 -42 7 c-225 36 -340 78
-483 177 -69 47 -168 142 -210 201 -20 28 -20 29 -80 18 -167 -31 -427 -144
-614 -268 -132 -88 -165 -114 -268 -215 -109 -107 -148 -155 -160 -200 l-10
-38 141 0 c150 0 256 -20 370 -69 190 -82 337 -254 420 -493 6 -16 10 -16 59
2 233 82 521 34 763 -125 82 -54 311 -285 365 -368 38 -58 46 -66 55 -52 89
152 297 374 432 462 209 137 459 186 668 133 43 -11 84 -20 91 -20 7 0 20 24
30 53 39 119 117 248 196 323 101 96 187 145 334 190 78 24 108 28 244 30 85
2 156 3 158 3 9 2 -129 159 -187 214 -240 226 -640 432 -924 475 l-58 9 -36
-54z"/>
</g>
</svg>
